<svg xmlns="http://www.w3.org/2000/svg" xmlns:xlink="http://www.w3.org/1999/xlink" width="18" height="22" viewBox="0 0 18 22"><defs><path id="vqqya" d="M907.112 2936.134l-1.465 4.885v3.206h-.003v.133h-1.22v-3.33c-.11-.59-.354-1.455-.745-2.603-.257-.763-.525-1.528-.782-2.291h.048l-.045-.134h1.284l.865 3.23.832-3.23h1.233l-.04.134zm2.917 7.681c-.304.418-.732.628-1.284.628-.548 0-.975-.21-1.279-.628-.234-.307-.344-.79-.344-1.441v-2.146c0-.06 0-.117.002-.173.005-.635.116-1.101.345-1.405.304-.419.733-.628 1.28-.628.552 0 .98.21 1.284.628.23.31.341.789.341 1.444v2.147c0 .077-.001.153-.004.226-.01.605-.121 1.056-.34 1.348zm4.408.543h-1.1v-.668c-.437.507-.854.753-1.255.753-.355 0-.6-.146-.708-.455-.06-.186-.098-.48-.098-.912v-4.847h.003v-.133h1.097v4.512c0 .261 0 .396.013.432.024.172.11.26.258.26.218 0 .449-.17.69-.515v-4.556h.004v-.133h1.1v6.129h-.004zm-5.166-4.353c0-.567-.17-.85-.526-.85-.328 0-.498.244-.52.732v2.562c0 .568.17.851.524.851.327 0 .496-.24.522-.718zm8.734 11.658c0 1.418-.002 2.922-.316 4.299-.22.967-1.004 1.68-1.946 1.786-2.234.252-4.494.253-6.744.252-2.25.001-4.51 0-6.744-.252-.943-.106-1.726-.819-1.946-1.786-.314-1.377-.314-2.881-.314-4.299 0-1.418.004-2.92.318-4.299.22-.966 1.003-1.679 1.946-1.786 2.233-.252 4.493-.253 6.744-.252 2.25-.001 4.51 0 6.743.252.943.107 1.727.82 1.947 1.786.313 1.378.312 2.88.312 4.299zm-12.873-4.206h-3.794v1.146h1.28v6.994h1.21v-6.994h1.304zm3.289 2.076h-1.09v4.634c-.241.345-.47.515-.688.515-.145 0-.228-.086-.254-.257-.01-.036-.01-.17-.01-.427v-4.465h-1.088v4.795c0 .429.036.718.095.901.11.308.351.452.702.452.4 0 .811-.244 1.243-.745v.661h1.09zm4.134 1.83c0-.575-.037-.976-.11-1.22-.145-.455-.436-.685-.87-.685-.4 0-.773.222-1.124.658v-2.659h-1.089v8.14h1.089v-.588c.363.455.737.672 1.124.672.434 0 .725-.23.87-.682.073-.257.11-.66.11-1.222zm4.107.145c0-.647-.109-1.12-.336-1.427-.305-.416-.738-.623-1.284-.623-.556 0-.99.207-1.304.623-.231.306-.336.78-.336 1.427v2.126c0 .644.119 1.123.35 1.426.314.414.747.621 1.317.621.568 0 1.015-.217 1.316-.657.132-.196.217-.416.254-.659.01-.11.023-.354.023-.708v-.16h-1.11c0 .44-.014.684-.024.744-.062.294-.219.44-.486.44-.374 0-.556-.28-.556-.84v-1.076h2.176zm-5.195-.233v2.589c0 .548-.16.818-.474.818-.179 0-.36-.086-.542-.27v-3.698c.182-.18.363-.266.542-.266.314 0 .474.28.474.827zm4.107.014v.561h-1.088v-.56c0-.561.182-.842.546-.842.36 0 .542.28.542.841z"/></defs><g><g opacity=".75" transform="translate(-900 -2936)"><use fill="#fff" xlink:href="#vqqya"/></g></g></svg>